<svg fill="none" xmlns="http://www.w3.org/2000/svg" viewBox="0 0 32 33"><path fill-rule="evenodd" clip-rule="evenodd" d="M4.334 16.237c0 6.34 5.233 11.5 11.666 11.5 6.432 0 11.667-5.16 11.667-11.5 0-6.341-5.235-11.5-11.667-11.5-6.433 0-11.666 5.159-11.666 11.5zm-1.667 0C2.667 8.99 8.649 3.094 16 3.094c7.352 0 13.334 5.896 13.334 13.143 0 7.246-5.982 13.142-13.334 13.142-7.351 0-13.333-5.896-13.333-13.142zm19.41-4.687a.838.838 0 011.423.58.814.814 0 01-.245.581l-8.331 8.213a.838.838 0 01-.59.241.83.83 0 01-.527-.198l-.007.008-5-4.107.007-.009a.806.806 0 01-.307-.622c0-.454.374-.822.834-.822a.83.83 0 01.526.2l.007-.01 4.415 3.628 7.795-7.683z" fill="#86C8BC"/></svg>