<svg xmlns="http://www.w3.org/2000/svg" width="375" viewBox="0 0 375 375" height="375" version="1.0"><g fill="#FFF"><g><g><path d="M 45.21875 -37.34375 C 45.21875 -35.113281 44.828125 -32.96875 44.046875 -30.90625 C 43.273438 -28.851562 42.019531 -27.039062 40.28125 -25.46875 C 38.539062 -23.894531 36.273438 -22.640625 33.484375 -21.703125 C 30.703125 -20.773438 27.300781 -20.3125 23.28125 -20.3125 L 20.734375 -20.3125 L 20.734375 -8.390625 C 20.734375 -7.421875 20.84375 -6.640625 21.0625 -6.046875 C 21.28125 -5.453125 21.570312 -5.003906 21.9375 -4.703125 C 22.300781 -4.398438 22.722656 -4.195312 23.203125 -4.09375 C 23.691406 -4 24.191406 -3.953125 24.703125 -3.953125 L 29.234375 -3.953125 L 29.234375 0 L 2.078125 0 L 2.078125 -3.953125 L 5.1875 -3.953125 C 5.75 -3.953125 6.257812 -4.003906 6.71875 -4.109375 C 7.175781 -4.222656 7.570312 -4.445312 7.90625 -4.78125 C 8.25 -5.125 8.519531 -5.609375 8.71875 -6.234375 C 8.914062 -6.867188 9.015625 -7.722656 9.015625 -8.796875 L 9.015625 -44.640625 C 9.015625 -45.628906 8.914062 -46.421875 8.71875 -47.015625 C 8.519531 -47.609375 8.242188 -48.0625 7.890625 -48.375 C 7.546875 -48.695312 7.144531 -48.910156 6.6875 -49.015625 C 6.226562 -49.128906 5.726562 -49.1875 5.1875 -49.1875 L 2.078125 -49.1875 L 2.078125 -53.109375 L 24.921875 -53.109375 C 28.359375 -53.109375 31.347656 -52.742188 33.890625 -52.015625 C 36.429688 -51.285156 38.539062 -50.238281 40.21875 -48.875 C 41.90625 -47.507812 43.160156 -45.859375 43.984375 -43.921875 C 44.804688 -41.984375 45.21875 -39.789062 45.21875 -37.34375 Z M 20.734375 -24.625 L 22.5625 -24.625 C 24.394531 -24.625 25.953125 -24.851562 27.234375 -25.3125 C 28.523438 -25.769531 29.570312 -26.492188 30.375 -27.484375 C 31.1875 -28.484375 31.78125 -29.769531 32.15625 -31.34375 C 32.539062 -32.914062 32.734375 -34.816406 32.734375 -37.046875 C 32.734375 -39.035156 32.566406 -40.757812 32.234375 -42.21875 C 31.910156 -43.6875 31.390625 -44.898438 30.671875 -45.859375 C 29.960938 -46.816406 29.03125 -47.53125 27.875 -48 C 26.726562 -48.46875 25.316406 -48.703125 23.640625 -48.703125 L 20.734375 -48.703125 Z M 20.734375 -24.625" transform="translate(0 172.44)"/></g></g></g><g fill="#FFF"><g><g><path d="M 26.328125 0 L 1.484375 0 L 1.484375 -3.953125 L 1.703125 -3.953125 C 2.554688 -3.953125 3.332031 -4.015625 4.03125 -4.140625 C 4.726562 -4.265625 5.332031 -4.515625 5.84375 -4.890625 C 6.351562 -5.265625 6.75 -5.800781 7.03125 -6.5 C 7.3125 -7.207031 7.453125 -8.140625 7.453125 -9.296875 L 7.453125 -30.875 C 7.453125 -31.96875 7.320312 -32.84375 7.0625 -33.5 C 6.8125 -34.164062 6.445312 -34.679688 5.96875 -35.046875 C 5.5 -35.410156 4.9375 -35.644531 4.28125 -35.75 C 3.632812 -35.863281 2.898438 -35.921875 2.078125 -35.921875 L 1.859375 -35.921875 L 1.859375 -39.890625 L 16.890625 -39.890625 L 18.375 -34.078125 L 18.75 -34.078125 C 19.226562 -35.191406 19.757812 -36.164062 20.34375 -37 C 20.925781 -37.832031 21.617188 -38.523438 22.421875 -39.078125 C 23.234375 -39.640625 24.191406 -40.054688 25.296875 -40.328125 C 26.398438 -40.609375 27.710938 -40.75 29.234375 -40.75 C 32.171875 -40.75 34.328125 -40.234375 35.703125 -39.203125 C 37.085938 -38.179688 37.78125 -36.6875 37.78125 -34.71875 C 37.78125 -32.445312 36.957031 -30.679688 35.3125 -29.421875 C 33.664062 -28.160156 31.335938 -27.53125 28.328125 -27.53125 C 28.328125 -28.550781 28.269531 -29.445312 28.15625 -30.21875 C 28.050781 -31 27.859375 -31.640625 27.578125 -32.140625 C 27.304688 -32.648438 26.929688 -33.035156 26.453125 -33.296875 C 25.984375 -33.566406 25.398438 -33.703125 24.703125 -33.703125 C 23.828125 -33.703125 23.070312 -33.484375 22.4375 -33.046875 C 21.8125 -32.617188 21.28125 -32.054688 20.84375 -31.359375 C 20.414062 -30.671875 20.0625 -29.890625 19.78125 -29.015625 C 19.5 -28.148438 19.28125 -27.273438 19.125 -26.390625 C 18.96875 -25.503906 18.863281 -24.660156 18.8125 -23.859375 C 18.769531 -23.066406 18.75 -22.378906 18.75 -21.796875 L 18.75 -8.9375 C 18.75 -7.84375 18.878906 -6.960938 19.140625 -6.296875 C 19.410156 -5.628906 19.773438 -5.125 20.234375 -4.78125 C 20.691406 -4.445312 21.238281 -4.222656 21.875 -4.109375 C 22.519531 -4.003906 23.207031 -3.953125 23.9375 -3.953125 L 26.328125 -3.953125 Z M 26.328125 0" transform="translate(47.553 172.44)"/></g></g></g><g fill="#FFF"><g><g><path d="M 42.09375 -20.09375 C 42.09375 -13.09375 40.453125 -7.875 37.171875 -4.4375 C 33.890625 -1 29.066406 0.71875 22.703125 0.71875 C 19.722656 0.71875 17.046875 0.289062 14.671875 -0.5625 C 12.296875 -1.425781 10.28125 -2.71875 8.625 -4.4375 C 6.96875 -6.15625 5.695312 -8.320312 4.8125 -10.9375 C 3.925781 -13.550781 3.484375 -16.601562 3.484375 -20.09375 C 3.484375 -27.082031 5.125 -32.285156 8.40625 -35.703125 C 11.6875 -39.117188 16.523438 -40.828125 22.921875 -40.828125 C 25.898438 -40.828125 28.566406 -40.398438 30.921875 -39.546875 C 33.285156 -38.703125 35.296875 -37.421875 36.953125 -35.703125 C 38.617188 -33.984375 39.890625 -31.820312 40.765625 -29.21875 C 41.648438 -26.613281 42.09375 -23.570312 42.09375 -20.09375 Z M 15.03125 -20.09375 C 15.03125 -17.445312 15.171875 -15.117188 15.453125 -13.109375 C 15.734375 -11.097656 16.179688 -9.414062 16.796875 -8.0625 C 17.410156 -6.707031 18.210938 -5.679688 19.203125 -4.984375 C 20.203125 -4.296875 21.414062 -3.953125 22.84375 -3.953125 C 24.269531 -3.953125 25.472656 -4.296875 26.453125 -4.984375 C 27.441406 -5.679688 28.242188 -6.707031 28.859375 -8.0625 C 29.472656 -9.414062 29.910156 -11.097656 30.171875 -13.109375 C 30.441406 -15.117188 30.578125 -17.445312 30.578125 -20.09375 C 30.578125 -22.75 30.4375 -25.078125 30.15625 -27.078125 C 29.882812 -29.078125 29.4375 -30.742188 28.8125 -32.078125 C 28.195312 -33.410156 27.394531 -34.40625 26.40625 -35.0625 C 25.414062 -35.726562 24.207031 -36.0625 22.78125 -36.0625 C 21.34375 -36.0625 20.128906 -35.726562 19.140625 -35.0625 C 18.148438 -34.40625 17.351562 -33.410156 16.75 -32.078125 C 16.144531 -30.742188 15.707031 -29.078125 15.4375 -27.078125 C 15.164062 -25.078125 15.03125 -22.75 15.03125 -20.09375 Z M 15.03125 -20.09375" transform="translate(86.533 172.44)"/></g></g></g><g fill="#FFF"><g><g><path d="M 23.359375 -5.265625 C 24.328125 -5.265625 25.25 -5.332031 26.125 -5.46875 C 27.007812 -5.601562 27.84375 -5.765625 28.625 -5.953125 L 28.625 -1.125 C 28.238281 -0.925781 27.710938 -0.71875 27.046875 -0.5 C 26.378906 -0.289062 25.601562 -0.0976562 24.71875 0.078125 C 23.832031 0.265625 22.832031 0.414062 21.71875 0.53125 C 20.601562 0.65625 19.394531 0.71875 18.09375 0.71875 C 16.414062 0.71875 14.898438 0.519531 13.546875 0.125 C 12.191406 -0.269531 11.039062 -0.929688 10.09375 -1.859375 C 9.15625 -2.796875 8.429688 -4.007812 7.921875 -5.5 C 7.410156 -6.988281 7.15625 -8.820312 7.15625 -11 L 7.15625 -34.796875 L 1.5625 -34.796875 L 1.5625 -38.609375 C 3.15625 -38.609375 4.582031 -38.921875 5.84375 -39.546875 C 7.101562 -40.179688 8.109375 -40.910156 8.859375 -41.734375 C 10.390625 -43.335938 11.53125 -45.796875 12.28125 -49.109375 L 18.453125 -49.109375 L 18.453125 -39.890625 L 27.96875 -39.890625 L 27.96875 -34.796875 L 18.453125 -34.796875 L 18.453125 -11.765625 C 18.453125 -9.515625 18.832031 -7.867188 19.59375 -6.828125 C 20.351562 -5.785156 21.609375 -5.265625 23.359375 -5.265625 Z M 23.359375 -5.265625" transform="translate(132.198 172.44)"/></g></g></g><g fill="#FFF"><g><g><path d="M 22.078125 -36 C 19.992188 -36 18.34375 -34.96875 17.125 -32.90625 C 15.90625 -30.851562 15.234375 -27.835938 15.109375 -23.859375 L 27.96875 -23.859375 C 27.96875 -25.753906 27.859375 -27.453125 27.640625 -28.953125 C 27.421875 -30.453125 27.078125 -31.722656 26.609375 -32.765625 C 26.140625 -33.804688 25.535156 -34.601562 24.796875 -35.15625 C 24.054688 -35.71875 23.148438 -36 22.078125 -36 Z M 22.78125 0.71875 C 19.625 0.71875 16.84375 0.257812 14.4375 -0.65625 C 12.03125 -1.570312 10.015625 -2.898438 8.390625 -4.640625 C 6.765625 -6.390625 5.539062 -8.53125 4.71875 -11.0625 C 3.894531 -13.59375 3.484375 -16.476562 3.484375 -19.71875 C 3.484375 -23.207031 3.894531 -26.269531 4.71875 -28.90625 C 5.539062 -31.550781 6.738281 -33.753906 8.3125 -35.515625 C 9.882812 -37.285156 11.816406 -38.613281 14.109375 -39.5 C 16.398438 -40.382812 19.007812 -40.828125 21.9375 -40.828125 C 24.625 -40.828125 27.046875 -40.445312 29.203125 -39.6875 C 31.359375 -38.925781 33.1875 -37.789062 34.6875 -36.28125 C 36.1875 -34.78125 37.335938 -32.914062 38.140625 -30.6875 C 38.941406 -28.46875 39.34375 -25.878906 39.34375 -22.921875 L 39.34375 -19.109375 L 14.96875 -19.109375 C 15.039062 -16.609375 15.3125 -14.460938 15.78125 -12.671875 C 16.25 -10.878906 16.898438 -9.398438 17.734375 -8.234375 C 18.578125 -7.078125 19.597656 -6.21875 20.796875 -5.65625 C 21.992188 -5.101562 23.367188 -4.828125 24.921875 -4.828125 C 26.203125 -4.828125 27.382812 -4.976562 28.46875 -5.28125 C 29.5625 -5.582031 30.550781 -6.003906 31.4375 -6.546875 C 32.320312 -7.097656 33.097656 -7.742188 33.765625 -8.484375 C 34.429688 -9.222656 34.984375 -10.015625 35.421875 -10.859375 C 36.742188 -10.128906 37.40625 -8.921875 37.40625 -7.234375 C 37.40625 -6.160156 37.113281 -5.144531 36.53125 -4.1875 C 35.957031 -3.238281 35.0625 -2.398438 33.84375 -1.671875 C 32.632812 -0.941406 31.113281 -0.363281 29.28125 0.0625 C 27.457031 0.5 25.289062 0.71875 22.78125 0.71875 Z M 22.78125 0.71875" transform="translate(162.387 172.44)"/></g></g></g><g fill="#FFF"><g><g><path d="M 6.390625 -51.9375 C 6.390625 -52.882812 6.550781 -53.695312 6.875 -54.375 C 7.207031 -55.050781 7.65625 -55.601562 8.21875 -56.03125 C 8.789062 -56.457031 9.457031 -56.769531 10.21875 -56.96875 C 10.988281 -57.175781 11.820312 -57.28125 12.71875 -57.28125 C 13.5625 -57.28125 14.367188 -57.175781 15.140625 -56.96875 C 15.921875 -56.769531 16.597656 -56.457031 17.171875 -56.03125 C 17.753906 -55.601562 18.222656 -55.050781 18.578125 -54.375 C 18.929688 -53.695312 19.109375 -52.882812 19.109375 -51.9375 C 19.109375 -51.019531 18.929688 -50.222656 18.578125 -49.546875 C 18.222656 -48.867188 17.753906 -48.3125 17.171875 -47.875 C 16.597656 -47.4375 15.921875 -47.109375 15.140625 -46.890625 C 14.367188 -46.671875 13.5625 -46.5625 12.71875 -46.5625 C 11.820312 -46.5625 10.988281 -46.671875 10.21875 -46.890625 C 9.457031 -47.109375 8.789062 -47.4375 8.21875 -47.875 C 7.65625 -48.3125 7.207031 -48.867188 6.875 -49.546875 C 6.550781 -50.222656 6.390625 -51.019531 6.390625 -51.9375 Z M 2.140625 -3.953125 C 2.703125 -3.953125 3.289062 -4.003906 3.90625 -4.109375 C 4.519531 -4.222656 5.085938 -4.445312 5.609375 -4.78125 C 6.128906 -5.125 6.566406 -5.609375 6.921875 -6.234375 C 7.273438 -6.867188 7.453125 -7.722656 7.453125 -8.796875 L 7.453125 -31.390625 C 7.453125 -32.378906 7.273438 -33.171875 6.921875 -33.765625 C 6.566406 -34.359375 6.125 -34.816406 5.59375 -35.140625 C 5.0625 -35.472656 4.484375 -35.6875 3.859375 -35.78125 C 3.242188 -35.875 2.671875 -35.921875 2.140625 -35.921875 L 1.265625 -35.921875 L 1.265625 -39.890625 L 18.75 -39.890625 L 18.75 -8.796875 C 18.75 -7.722656 18.921875 -6.867188 19.265625 -6.234375 C 19.617188 -5.609375 20.054688 -5.125 20.578125 -4.78125 C 21.097656 -4.445312 21.671875 -4.222656 22.296875 -4.109375 C 22.929688 -4.003906 23.515625 -3.953125 24.046875 -3.953125 L 24.921875 -3.953125 L 24.921875 0 L 1.265625 0 L 1.265625 -3.953125 Z M 2.140625 -3.953125" transform="translate(204.927 172.44)"/></g></g></g><g fill="#FFF"><g><g><path d="M 31.171875 0 L 31.171875 -24.484375 C 31.171875 -26.078125 31.066406 -27.5 30.859375 -28.75 C 30.648438 -30 30.304688 -31.046875 29.828125 -31.890625 C 29.359375 -32.734375 28.742188 -33.378906 27.984375 -33.828125 C 27.222656 -34.273438 26.296875 -34.5 25.203125 -34.5 C 23.972656 -34.5 22.945312 -34.1875 22.125 -33.5625 C 21.300781 -32.9375 20.640625 -32.09375 20.140625 -31.03125 C 19.640625 -29.976562 19.28125 -28.753906 19.0625 -27.359375 C 18.851562 -25.972656 18.75 -24.519531 18.75 -23 L 18.75 -8.796875 C 18.75 -7.753906 18.875 -6.914062 19.125 -6.28125 C 19.375 -5.65625 19.726562 -5.164062 20.1875 -4.8125 C 20.65625 -4.457031 21.222656 -4.222656 21.890625 -4.109375 C 22.554688 -4.003906 23.300781 -3.953125 24.125 -3.953125 L 24.34375 -3.953125 L 24.34375 0 L 1.484375 0 L 1.484375 -3.953125 L 1.640625 -3.953125 C 2.484375 -3.953125 3.253906 -4.003906 3.953125 -4.109375 C 4.660156 -4.222656 5.273438 -4.460938 5.796875 -4.828125 C 6.316406 -5.191406 6.722656 -5.710938 7.015625 -6.390625 C 7.304688 -7.066406 7.453125 -7.960938 7.453125 -9.078125 L 7.453125 -31.09375 C 7.453125 -32.132812 7.320312 -32.96875 7.0625 -33.59375 C 6.8125 -34.226562 6.445312 -34.71875 5.96875 -35.0625 C 5.5 -35.414062 4.9375 -35.644531 4.28125 -35.75 C 3.632812 -35.863281 2.898438 -35.921875 2.078125 -35.921875 L 1.859375 -35.921875 L 1.859375 -39.890625 L 17.46875 -39.890625 L 18.453125 -34.578125 L 18.8125 -34.578125 C 19.5625 -35.984375 20.351562 -37.097656 21.1875 -37.921875 C 22.03125 -38.742188 22.921875 -39.375 23.859375 -39.8125 C 24.804688 -40.25 25.804688 -40.523438 26.859375 -40.640625 C 27.910156 -40.765625 29.019531 -40.828125 30.1875 -40.828125 C 32.09375 -40.828125 33.804688 -40.546875 35.328125 -39.984375 C 36.859375 -39.429688 38.148438 -38.570312 39.203125 -37.40625 C 40.265625 -36.25 41.070312 -34.765625 41.625 -32.953125 C 42.1875 -31.148438 42.46875 -28.992188 42.46875 -26.484375 L 42.46875 -9.21875 C 42.46875 -8.0625 42.566406 -7.132812 42.765625 -6.4375 C 42.972656 -5.75 43.28125 -5.222656 43.6875 -4.859375 C 44.101562 -4.503906 44.625 -4.265625 45.25 -4.140625 C 45.882812 -4.015625 46.625 -3.953125 47.46875 -3.953125 L 47.6875 -3.953125 L 47.6875 0 Z M 31.171875 0" transform="translate(231.193 172.44)"/></g></g></g><g fill="#FFF"><g><g><path d="M 17.1875 0.71875 C 14.5 0.71875 12.203125 0.5 10.296875 0.0625 C 8.398438 -0.363281 6.847656 -0.960938 5.640625 -1.734375 C 4.441406 -2.515625 3.570312 -3.4375 3.03125 -4.5 C 2.488281 -5.570312 2.21875 -6.722656 2.21875 -7.953125 C 2.21875 -9.160156 2.453125 -10.132812 2.921875 -10.875 C 3.390625 -11.613281 3.984375 -12.1875 4.703125 -12.59375 C 5.421875 -13.007812 6.175781 -13.285156 6.96875 -13.421875 C 7.769531 -13.554688 8.5 -13.625 9.15625 -13.625 C 9.15625 -12.070312 9.347656 -10.675781 9.734375 -9.4375 C 10.117188 -8.207031 10.660156 -7.160156 11.359375 -6.296875 C 12.066406 -5.441406 12.910156 -4.78125 13.890625 -4.3125 C 14.867188 -3.851562 15.96875 -3.625 17.1875 -3.625 C 18.46875 -3.625 19.570312 -3.757812 20.5 -4.03125 C 21.4375 -4.300781 22.203125 -4.671875 22.796875 -5.140625 C 23.390625 -5.609375 23.832031 -6.148438 24.125 -6.765625 C 24.414062 -7.390625 24.5625 -8.039062 24.5625 -8.71875 C 24.5625 -9.539062 24.40625 -10.269531 24.09375 -10.90625 C 23.789062 -11.550781 23.289062 -12.15625 22.59375 -12.71875 C 21.894531 -13.289062 20.957031 -13.847656 19.78125 -14.390625 C 18.601562 -14.941406 17.144531 -15.519531 15.40625 -16.125 C 13.394531 -16.832031 11.617188 -17.578125 10.078125 -18.359375 C 8.535156 -19.148438 7.238281 -20.046875 6.1875 -21.046875 C 5.132812 -22.054688 4.335938 -23.207031 3.796875 -24.5 C 3.253906 -25.789062 2.984375 -27.273438 2.984375 -28.953125 C 2.984375 -30.929688 3.363281 -32.660156 4.125 -34.140625 C 4.882812 -35.617188 5.96875 -36.847656 7.375 -37.828125 C 8.78125 -38.804688 10.460938 -39.535156 12.421875 -40.015625 C 14.378906 -40.503906 16.554688 -40.75 18.953125 -40.75 C 21.304688 -40.75 23.304688 -40.550781 24.953125 -40.15625 C 26.597656 -39.757812 27.941406 -39.234375 28.984375 -38.578125 C 30.023438 -37.921875 30.785156 -37.179688 31.265625 -36.359375 C 31.753906 -35.535156 32 -34.703125 32 -33.859375 C 32 -32.179688 31.410156 -30.90625 30.234375 -30.03125 C 29.066406 -29.164062 27.125 -28.734375 24.40625 -28.734375 C 24.40625 -31.203125 23.851562 -33.117188 22.75 -34.484375 C 21.65625 -35.859375 20.03125 -36.546875 17.875 -36.546875 C 17.070312 -36.546875 16.300781 -36.445312 15.5625 -36.25 C 14.820312 -36.050781 14.179688 -35.757812 13.640625 -35.375 C 13.097656 -34.988281 12.660156 -34.507812 12.328125 -33.9375 C 12.003906 -33.375 11.84375 -32.703125 11.84375 -31.921875 C 11.84375 -31.128906 11.992188 -30.414062 12.296875 -29.78125 C 12.597656 -29.15625 13.128906 -28.554688 13.890625 -27.984375 C 14.648438 -27.421875 15.679688 -26.847656 16.984375 -26.265625 C 18.296875 -25.679688 19.972656 -25.039062 22.015625 -24.34375 C 23.660156 -23.757812 25.175781 -23.097656 26.5625 -22.359375 C 27.957031 -21.617188 29.15625 -20.769531 30.15625 -19.8125 C 31.164062 -18.851562 31.945312 -17.765625 32.5 -16.546875 C 33.0625 -15.328125 33.34375 -13.925781 33.34375 -12.34375 C 33.34375 -10.289062 32.984375 -8.453125 32.265625 -6.828125 C 31.554688 -5.203125 30.507812 -3.832031 29.125 -2.71875 C 27.75 -1.601562 26.054688 -0.75 24.046875 -0.15625 C 22.035156 0.425781 19.75 0.71875 17.1875 0.71875 Z M 17.1875 0.71875" transform="translate(280.89 172.44)"/></g></g></g><g fill="#FFF"><g><g><path d="M 43.875 0 L 38.75 -5.453125 C 37.832031 -4.523438 36.8125 -3.6875 35.6875 -2.9375 C 34.5625 -2.1875 33.320312 -1.539062 31.96875 -1 C 30.613281 -0.457031 29.140625 -0.0351562 27.546875 0.265625 C 25.960938 0.566406 24.238281 0.71875 22.375 0.71875 C 19.320312 0.71875 16.617188 0.363281 14.265625 -0.34375 C 11.921875 -1.0625 9.945312 -2.097656 8.34375 -3.453125 C 6.75 -4.804688 5.539062 -6.460938 4.71875 -8.421875 C 3.894531 -10.390625 3.484375 -12.617188 3.484375 -15.109375 C 3.484375 -17.285156 3.828125 -19.144531 4.515625 -20.6875 C 5.210938 -22.226562 6.140625 -23.5625 7.296875 -24.6875 C 8.460938 -25.8125 9.8125 -26.765625 11.34375 -27.546875 C 12.882812 -28.335938 14.503906 -29.070312 16.203125 -29.75 C 15.234375 -30.914062 14.390625 -32.023438 13.671875 -33.078125 C 12.960938 -34.128906 12.375 -35.175781 11.90625 -36.21875 C 11.445312 -37.257812 11.109375 -38.320312 10.890625 -39.40625 C 10.671875 -40.5 10.5625 -41.675781 10.5625 -42.9375 C 10.5625 -44.582031 10.875 -46.070312 11.5 -47.40625 C 12.132812 -48.738281 13.078125 -49.890625 14.328125 -50.859375 C 15.578125 -51.828125 17.132812 -52.570312 19 -53.09375 C 20.863281 -53.613281 23.03125 -53.875 25.5 -53.875 C 27.894531 -53.875 29.984375 -53.59375 31.765625 -53.03125 C 33.546875 -52.476562 35.019531 -51.71875 36.1875 -50.75 C 37.363281 -49.78125 38.25 -48.648438 38.84375 -47.359375 C 39.4375 -46.078125 39.734375 -44.722656 39.734375 -43.296875 C 39.734375 -41.796875 39.503906 -40.4375 39.046875 -39.21875 C 38.585938 -38.007812 37.890625 -36.890625 36.953125 -35.859375 C 36.023438 -34.835938 34.851562 -33.878906 33.4375 -32.984375 C 32.019531 -32.085938 30.34375 -31.191406 28.40625 -30.296875 C 28.53125 -30.097656 28.710938 -29.914062 28.953125 -29.75 L 39.484375 -18.671875 C 39.796875 -20.390625 40 -22.085938 40.09375 -23.765625 C 40.195312 -25.453125 40.25 -27 40.25 -28.40625 L 40.25 -31.671875 L 56.515625 -31.671875 L 56.515625 -27.75 L 55.359375 -27.75 C 54.535156 -27.75 53.726562 -27.695312 52.9375 -27.59375 C 52.15625 -27.5 51.425781 -27.273438 50.75 -26.921875 C 50.070312 -26.578125 49.472656 -26.070312 48.953125 -25.40625 C 48.429688 -24.738281 48.007812 -23.835938 47.6875 -22.703125 C 47.300781 -21.316406 46.847656 -19.84375 46.328125 -18.28125 C 45.804688 -16.726562 45.171875 -15.148438 44.421875 -13.546875 L 51.828125 -5.8125 C 52.535156 -5.0625 53.394531 -4.5625 54.40625 -4.3125 C 55.425781 -4.070312 56.601562 -3.953125 57.9375 -3.953125 L 58.625 -3.953125 L 58.625 0 Z M 14.421875 -14.75 C 14.421875 -13.269531 14.65625 -11.894531 15.125 -10.625 C 15.601562 -9.351562 16.265625 -8.242188 17.109375 -7.296875 C 17.953125 -6.359375 18.984375 -5.613281 20.203125 -5.0625 C 21.429688 -4.519531 22.785156 -4.25 24.265625 -4.25 C 26.898438 -4.25 29.125 -4.675781 30.9375 -5.53125 C 32.757812 -6.394531 34.273438 -7.554688 35.484375 -9.015625 L 19.578125 -25.96875 C 18.535156 -25.21875 17.679688 -24.425781 17.015625 -23.59375 C 16.347656 -22.757812 15.820312 -21.875 15.4375 -20.9375 C 15.050781 -20.007812 14.785156 -19.03125 14.640625 -18 C 14.492188 -16.96875 14.421875 -15.882812 14.421875 -14.75 Z M 30.734375 -43.21875 C 30.734375 -44.09375 30.648438 -44.90625 30.484375 -45.65625 C 30.328125 -46.40625 30.054688 -47.054688 29.671875 -47.609375 C 29.285156 -48.171875 28.753906 -48.609375 28.078125 -48.921875 C 27.398438 -49.242188 26.539062 -49.40625 25.5 -49.40625 C 24.675781 -49.40625 23.953125 -49.242188 23.328125 -48.921875 C 22.710938 -48.609375 22.210938 -48.171875 21.828125 -47.609375 C 21.441406 -47.054688 21.148438 -46.398438 20.953125 -45.640625 C 20.765625 -44.878906 20.671875 -44.050781 20.671875 -43.15625 C 20.671875 -42.300781 20.765625 -41.488281 20.953125 -40.71875 C 21.148438 -39.945312 21.4375 -39.175781 21.8125 -38.40625 C 22.1875 -37.644531 22.664062 -36.875 23.25 -36.09375 C 23.832031 -35.320312 24.507812 -34.503906 25.28125 -33.640625 C 26.320312 -34.210938 27.191406 -34.828125 27.890625 -35.484375 C 28.597656 -36.140625 29.15625 -36.847656 29.5625 -37.609375 C 29.976562 -38.367188 30.273438 -39.207031 30.453125 -40.125 C 30.640625 -41.050781 30.734375 -42.082031 30.734375 -43.21875 Z M 30.734375 -43.21875" transform="translate(317.254 172.44)"/></g></g></g><g fill="#FFF"><g><g><path d="M 43.59375 0 L 14.5625 -40.96875 L 14.5625 -8.796875 C 14.5625 -7.722656 14.664062 -6.867188 14.875 -6.234375 C 15.082031 -5.609375 15.351562 -5.125 15.6875 -4.78125 C 16.03125 -4.445312 16.4375 -4.222656 16.90625 -4.109375 C 17.375 -4.003906 17.863281 -3.953125 18.375 -3.953125 L 21.5 -3.953125 L 21.5 0 L 2.078125 0 L 2.078125 -3.953125 L 5.1875 -3.953125 C 5.726562 -3.953125 6.226562 -4.003906 6.6875 -4.109375 C 7.144531 -4.222656 7.546875 -4.445312 7.890625 -4.78125 C 8.242188 -5.125 8.519531 -5.609375 8.71875 -6.234375 C 8.914062 -6.867188 9.015625 -7.722656 9.015625 -8.796875 L 9.015625 -44.640625 C 9.015625 -45.628906 8.910156 -46.421875 8.703125 -47.015625 C 8.492188 -47.609375 8.210938 -48.0625 7.859375 -48.375 C 7.515625 -48.695312 7.109375 -48.910156 6.640625 -49.015625 C 6.179688 -49.128906 5.695312 -49.1875 5.1875 -49.1875 L 2.078125 -49.1875 L 2.078125 -53.109375 L 18.59375 -53.109375 L 44.859375 -15.984375 L 44.859375 -44.640625 C 44.859375 -45.628906 44.753906 -46.421875 44.546875 -47.015625 C 44.335938 -47.609375 44.054688 -48.0625 43.703125 -48.375 C 43.359375 -48.695312 42.957031 -48.910156 42.5 -49.015625 C 42.039062 -49.128906 41.554688 -49.1875 41.046875 -49.1875 L 37.921875 -49.1875 L 37.921875 -53.109375 L 57.359375 -53.109375 L 57.359375 -49.1875 L 54.234375 -49.1875 C 53.722656 -49.1875 53.238281 -49.128906 52.78125 -49.015625 C 52.320312 -48.910156 51.914062 -48.6875 51.5625 -48.34375 C 51.207031 -48.007812 50.929688 -47.523438 50.734375 -46.890625 C 50.546875 -46.265625 50.453125 -45.414062 50.453125 -44.34375 L 50.453125 0 Z M 43.59375 0" transform="translate(0 254.692)"/></g></g></g><g fill="#FFF"><g><g><path d="M 32.953125 0 L 31.3125 -5.265625 L 30.953125 -5.265625 C 30.203125 -3.984375 29.390625 -2.945312 28.515625 -2.15625 C 27.640625 -1.375 26.707031 -0.769531 25.71875 -0.34375 C 24.726562 0.0820312 23.679688 0.363281 22.578125 0.5 C 21.472656 0.644531 20.335938 0.71875 19.171875 0.71875 C 15.296875 0.71875 12.320312 -0.476562 10.25 -2.875 C 8.1875 -5.269531 7.15625 -8.972656 7.15625 -13.984375 L 7.15625 -30.65625 C 7.15625 -31.75 7.054688 -32.632812 6.859375 -33.3125 C 6.671875 -33.988281 6.367188 -34.519531 5.953125 -34.90625 C 5.546875 -35.289062 5.019531 -35.554688 4.375 -35.703125 C 3.738281 -35.847656 2.972656 -35.921875 2.078125 -35.921875 L 1.921875 -35.921875 L 1.921875 -39.890625 L 18.453125 -39.890625 L 18.453125 -16.0625 C 18.453125 -14.457031 18.539062 -13.015625 18.71875 -11.734375 C 18.90625 -10.453125 19.21875 -9.351562 19.65625 -8.4375 C 20.09375 -7.53125 20.671875 -6.828125 21.390625 -6.328125 C 22.117188 -5.835938 23.03125 -5.59375 24.125 -5.59375 C 25.3125 -5.59375 26.332031 -5.851562 27.1875 -6.375 C 28.050781 -6.894531 28.753906 -7.644531 29.296875 -8.625 C 29.835938 -9.601562 30.234375 -10.789062 30.484375 -12.1875 C 30.742188 -13.582031 30.875 -15.148438 30.875 -16.890625 L 30.875 -31.171875 C 30.875 -32.253906 30.726562 -33.109375 30.4375 -33.734375 C 30.144531 -34.367188 29.753906 -34.847656 29.265625 -35.171875 C 28.785156 -35.503906 28.21875 -35.710938 27.5625 -35.796875 C 26.914062 -35.878906 26.226562 -35.921875 25.5 -35.921875 L 25.28125 -35.921875 L 25.28125 -39.890625 L 42.171875 -39.890625 L 42.171875 -8.640625 C 42.171875 -7.554688 42.296875 -6.703125 42.546875 -6.078125 C 42.804688 -5.460938 43.148438 -5 43.578125 -4.6875 C 44.015625 -4.375 44.535156 -4.171875 45.140625 -4.078125 C 45.753906 -3.992188 46.421875 -3.953125 47.140625 -3.953125 L 47.765625 -3.953125 L 47.765625 0 Z M 32.953125 0" transform="translate(58.706 254.692)"/></g></g></g><g fill="#FFF"><g><g><path d="M 23.359375 -5.265625 C 24.328125 -5.265625 25.25 -5.332031 26.125 -5.46875 C 27.007812 -5.601562 27.84375 -5.765625 28.625 -5.953125 L 28.625 -1.125 C 28.238281 -0.925781 27.710938 -0.71875 27.046875 -0.5 C 26.378906 -0.289062 25.601562 -0.0976562 24.71875 0.078125 C 23.832031 0.265625 22.832031 0.414062 21.71875 0.53125 C 20.601562 0.65625 19.394531 0.71875 18.09375 0.71875 C 16.414062 0.71875 14.898438 0.519531 13.546875 0.125 C 12.191406 -0.269531 11.039062 -0.929688 10.09375 -1.859375 C 9.15625 -2.796875 8.429688 -4.007812 7.921875 -5.5 C 7.410156 -6.988281 7.15625 -8.820312 7.15625 -11 L 7.15625 -34.796875 L 1.5625 -34.796875 L 1.5625 -38.609375 C 3.15625 -38.609375 4.582031 -38.921875 5.84375 -39.546875 C 7.101562 -40.179688 8.109375 -40.910156 8.859375 -41.734375 C 10.390625 -43.335938 11.53125 -45.796875 12.28125 -49.109375 L 18.453125 -49.109375 L 18.453125 -39.890625 L 27.96875 -39.890625 L 27.96875 -34.796875 L 18.453125 -34.796875 L 18.453125 -11.765625 C 18.453125 -9.515625 18.832031 -7.867188 19.59375 -6.828125 C 20.351562 -5.785156 21.609375 -5.265625 23.359375 -5.265625 Z M 23.359375 -5.265625" transform="translate(108.402 254.692)"/></g></g></g><g fill="#FFF"><g><g><path d="M 26.328125 0 L 1.484375 0 L 1.484375 -3.953125 L 1.703125 -3.953125 C 2.554688 -3.953125 3.332031 -4.015625 4.03125 -4.140625 C 4.726562 -4.265625 5.332031 -4.515625 5.84375 -4.890625 C 6.351562 -5.265625 6.75 -5.800781 7.03125 -6.5 C 7.3125 -7.207031 7.453125 -8.140625 7.453125 -9.296875 L 7.453125 -30.875 C 7.453125 -31.96875 7.320312 -32.84375 7.0625 -33.5 C 6.8125 -34.164062 6.445312 -34.679688 5.96875 -35.046875 C 5.5 -35.410156 4.9375 -35.644531 4.28125 -35.75 C 3.632812 -35.863281 2.898438 -35.921875 2.078125 -35.921875 L 1.859375 -35.921875 L 1.859375 -39.890625 L 16.890625 -39.890625 L 18.375 -34.078125 L 18.75 -34.078125 C 19.226562 -35.191406 19.757812 -36.164062 20.34375 -37 C 20.925781 -37.832031 21.617188 -38.523438 22.421875 -39.078125 C 23.234375 -39.640625 24.191406 -40.054688 25.296875 -40.328125 C 26.398438 -40.609375 27.710938 -40.75 29.234375 -40.75 C 32.171875 -40.75 34.328125 -40.234375 35.703125 -39.203125 C 37.085938 -38.179688 37.78125 -36.6875 37.78125 -34.71875 C 37.78125 -32.445312 36.957031 -30.679688 35.3125 -29.421875 C 33.664062 -28.160156 31.335938 -27.53125 28.328125 -27.53125 C 28.328125 -28.550781 28.269531 -29.445312 28.15625 -30.21875 C 28.050781 -31 27.859375 -31.640625 27.578125 -32.140625 C 27.304688 -32.648438 26.929688 -33.035156 26.453125 -33.296875 C 25.984375 -33.566406 25.398438 -33.703125 24.703125 -33.703125 C 23.828125 -33.703125 23.070312 -33.484375 22.4375 -33.046875 C 21.8125 -32.617188 21.28125 -32.054688 20.84375 -31.359375 C 20.414062 -30.671875 20.0625 -29.890625 19.78125 -29.015625 C 19.5 -28.148438 19.28125 -27.273438 19.125 -26.390625 C 18.96875 -25.503906 18.863281 -24.660156 18.8125 -23.859375 C 18.769531 -23.066406 18.75 -22.378906 18.75 -21.796875 L 18.75 -8.9375 C 18.75 -7.84375 18.878906 -6.960938 19.140625 -6.296875 C 19.410156 -5.628906 19.773438 -5.125 20.234375 -4.78125 C 20.691406 -4.445312 21.238281 -4.222656 21.875 -4.109375 C 22.519531 -4.003906 23.207031 -3.953125 23.9375 -3.953125 L 26.328125 -3.953125 Z M 26.328125 0" transform="translate(138.591 254.692)"/></g></g></g><g fill="#FFF"><g><g><path d="M 6.390625 -51.9375 C 6.390625 -52.882812 6.550781 -53.695312 6.875 -54.375 C 7.207031 -55.050781 7.65625 -55.601562 8.21875 -56.03125 C 8.789062 -56.457031 9.457031 -56.769531 10.21875 -56.96875 C 10.988281 -57.175781 11.820312 -57.28125 12.71875 -57.28125 C 13.5625 -57.28125 14.367188 -57.175781 15.140625 -56.96875 C 15.921875 -56.769531 16.597656 -56.457031 17.171875 -56.03125 C 17.753906 -55.601562 18.222656 -55.050781 18.578125 -54.375 C 18.929688 -53.695312 19.109375 -52.882812 19.109375 -51.9375 C 19.109375 -51.019531 18.929688 -50.222656 18.578125 -49.546875 C 18.222656 -48.867188 17.753906 -48.3125 17.171875 -47.875 C 16.597656 -47.4375 15.921875 -47.109375 15.140625 -46.890625 C 14.367188 -46.671875 13.5625 -46.5625 12.71875 -46.5625 C 11.820312 -46.5625 10.988281 -46.671875 10.21875 -46.890625 C 9.457031 -47.109375 8.789062 -47.4375 8.21875 -47.875 C 7.65625 -48.3125 7.207031 -48.867188 6.875 -49.546875 C 6.550781 -50.222656 6.390625 -51.019531 6.390625 -51.9375 Z M 2.140625 -3.953125 C 2.703125 -3.953125 3.289062 -4.003906 3.90625 -4.109375 C 4.519531 -4.222656 5.085938 -4.445312 5.609375 -4.78125 C 6.128906 -5.125 6.566406 -5.609375 6.921875 -6.234375 C 7.273438 -6.867188 7.453125 -7.722656 7.453125 -8.796875 L 7.453125 -31.390625 C 7.453125 -32.378906 7.273438 -33.171875 6.921875 -33.765625 C 6.566406 -34.359375 6.125 -34.816406 5.59375 -35.140625 C 5.0625 -35.472656 4.484375 -35.6875 3.859375 -35.78125 C 3.242188 -35.875 2.671875 -35.921875 2.140625 -35.921875 L 1.265625 -35.921875 L 1.265625 -39.890625 L 18.75 -39.890625 L 18.75 -8.796875 C 18.75 -7.722656 18.921875 -6.867188 19.265625 -6.234375 C 19.617188 -5.609375 20.054688 -5.125 20.578125 -4.78125 C 21.097656 -4.445312 21.671875 -4.222656 22.296875 -4.109375 C 22.929688 -4.003906 23.515625 -3.953125 24.046875 -3.953125 L 24.921875 -3.953125 L 24.921875 0 L 1.265625 0 L 1.265625 -3.953125 Z M 2.140625 -3.953125" transform="translate(177.571 254.692)"/></g></g></g><g fill="#FFF"><g><g><path d="M 23.359375 -5.265625 C 24.328125 -5.265625 25.25 -5.332031 26.125 -5.46875 C 27.007812 -5.601562 27.84375 -5.765625 28.625 -5.953125 L 28.625 -1.125 C 28.238281 -0.925781 27.710938 -0.71875 27.046875 -0.5 C 26.378906 -0.289062 25.601562 -0.0976562 24.71875 0.078125 C 23.832031 0.265625 22.832031 0.414062 21.71875 0.53125 C 20.601562 0.65625 19.394531 0.71875 18.09375 0.71875 C 16.414062 0.71875 14.898438 0.519531 13.546875 0.125 C 12.191406 -0.269531 11.039062 -0.929688 10.09375 -1.859375 C 9.15625 -2.796875 8.429688 -4.007812 7.921875 -5.5 C 7.410156 -6.988281 7.15625 -8.820312 7.15625 -11 L 7.15625 -34.796875 L 1.5625 -34.796875 L 1.5625 -38.609375 C 3.15625 -38.609375 4.582031 -38.921875 5.84375 -39.546875 C 7.101562 -40.179688 8.109375 -40.910156 8.859375 -41.734375 C 10.390625 -43.335938 11.53125 -45.796875 12.28125 -49.109375 L 18.453125 -49.109375 L 18.453125 -39.890625 L 27.96875 -39.890625 L 27.96875 -34.796875 L 18.453125 -34.796875 L 18.453125 -11.765625 C 18.453125 -9.515625 18.832031 -7.867188 19.59375 -6.828125 C 20.351562 -5.785156 21.609375 -5.265625 23.359375 -5.265625 Z M 23.359375 -5.265625" transform="translate(203.837 254.692)"/></g></g></g><g fill="#FFF"><g><g><path d="M 6.390625 -51.9375 C 6.390625 -52.882812 6.550781 -53.695312 6.875 -54.375 C 7.207031 -55.050781 7.65625 -55.601562 8.21875 -56.03125 C 8.789062 -56.457031 9.457031 -56.769531 10.21875 -56.96875 C 10.988281 -57.175781 11.820312 -57.28125 12.71875 -57.28125 C 13.5625 -57.28125 14.367188 -57.175781 15.140625 -56.96875 C 15.921875 -56.769531 16.597656 -56.457031 17.171875 -56.03125 C 17.753906 -55.601562 18.222656 -55.050781 18.578125 -54.375 C 18.929688 -53.695312 19.109375 -52.882812 19.109375 -51.9375 C 19.109375 -51.019531 18.929688 -50.222656 18.578125 -49.546875 C 18.222656 -48.867188 17.753906 -48.3125 17.171875 -47.875 C 16.597656 -47.4375 15.921875 -47.109375 15.140625 -46.890625 C 14.367188 -46.671875 13.5625 -46.5625 12.71875 -46.5625 C 11.820312 -46.5625 10.988281 -46.671875 10.21875 -46.890625 C 9.457031 -47.109375 8.789062 -47.4375 8.21875 -47.875 C 7.65625 -48.3125 7.207031 -48.867188 6.875 -49.546875 C 6.550781 -50.222656 6.390625 -51.019531 6.390625 -51.9375 Z M 2.140625 -3.953125 C 2.703125 -3.953125 3.289062 -4.003906 3.90625 -4.109375 C 4.519531 -4.222656 5.085938 -4.445312 5.609375 -4.78125 C 6.128906 -5.125 6.566406 -5.609375 6.921875 -6.234375 C 7.273438 -6.867188 7.453125 -7.722656 7.453125 -8.796875 L 7.453125 -31.390625 C 7.453125 -32.378906 7.273438 -33.171875 6.921875 -33.765625 C 6.566406 -34.359375 6.125 -34.816406 5.59375 -35.140625 C 5.0625 -35.472656 4.484375 -35.6875 3.859375 -35.78125 C 3.242188 -35.875 2.671875 -35.921875 2.140625 -35.921875 L 1.265625 -35.921875 L 1.265625 -39.890625 L 18.75 -39.890625 L 18.75 -8.796875 C 18.75 -7.722656 18.921875 -6.867188 19.265625 -6.234375 C 19.617188 -5.609375 20.054688 -5.125 20.578125 -4.78125 C 21.097656 -4.445312 21.671875 -4.222656 22.296875 -4.109375 C 22.929688 -4.003906 23.515625 -3.953125 24.046875 -3.953125 L 24.921875 -3.953125 L 24.921875 0 L 1.265625 0 L 1.265625 -3.953125 Z M 2.140625 -3.953125" transform="translate(234.026 254.692)"/></g></g></g><g fill="#FFF"><g><g><path d="M 42.09375 -20.09375 C 42.09375 -13.09375 40.453125 -7.875 37.171875 -4.4375 C 33.890625 -1 29.066406 0.71875 22.703125 0.71875 C 19.722656 0.71875 17.046875 0.289062 14.671875 -0.5625 C 12.296875 -1.425781 10.28125 -2.71875 8.625 -4.4375 C 6.96875 -6.15625 5.695312 -8.320312 4.8125 -10.9375 C 3.925781 -13.550781 3.484375 -16.601562 3.484375 -20.09375 C 3.484375 -27.082031 5.125 -32.285156 8.40625 -35.703125 C 11.6875 -39.117188 16.523438 -40.828125 22.921875 -40.828125 C 25.898438 -40.828125 28.566406 -40.398438 30.921875 -39.546875 C 33.285156 -38.703125 35.296875 -37.421875 36.953125 -35.703125 C 38.617188 -33.984375 39.890625 -31.820312 40.765625 -29.21875 C 41.648438 -26.613281 42.09375 -23.570312 42.09375 -20.09375 Z M 15.03125 -20.09375 C 15.03125 -17.445312 15.171875 -15.117188 15.453125 -13.109375 C 15.734375 -11.097656 16.179688 -9.414062 16.796875 -8.0625 C 17.410156 -6.707031 18.210938 -5.679688 19.203125 -4.984375 C 20.203125 -4.296875 21.414062 -3.953125 22.84375 -3.953125 C 24.269531 -3.953125 25.472656 -4.296875 26.453125 -4.984375 C 27.441406 -5.679688 28.242188 -6.707031 28.859375 -8.0625 C 29.472656 -9.414062 29.910156 -11.097656 30.171875 -13.109375 C 30.441406 -15.117188 30.578125 -17.445312 30.578125 -20.09375 C 30.578125 -22.75 30.4375 -25.078125 30.15625 -27.078125 C 29.882812 -29.078125 29.4375 -30.742188 28.8125 -32.078125 C 28.195312 -33.410156 27.394531 -34.40625 26.40625 -35.0625 C 25.414062 -35.726562 24.207031 -36.0625 22.78125 -36.0625 C 21.34375 -36.0625 20.128906 -35.726562 19.140625 -35.0625 C 18.148438 -34.40625 17.351562 -33.410156 16.75 -32.078125 C 16.144531 -30.742188 15.707031 -29.078125 15.4375 -27.078125 C 15.164062 -25.078125 15.03125 -22.75 15.03125 -20.09375 Z M 15.03125 -20.09375" transform="translate(260.292 254.692)"/></g></g></g><g fill="#FFF"><g><g><path d="M 31.171875 0 L 31.171875 -24.484375 C 31.171875 -26.078125 31.066406 -27.5 30.859375 -28.75 C 30.648438 -30 30.304688 -31.046875 29.828125 -31.890625 C 29.359375 -32.734375 28.742188 -33.378906 27.984375 -33.828125 C 27.222656 -34.273438 26.296875 -34.5 25.203125 -34.5 C 23.972656 -34.5 22.945312 -34.1875 22.125 -33.5625 C 21.300781 -32.9375 20.640625 -32.09375 20.140625 -31.03125 C 19.640625 -29.976562 19.28125 -28.753906 19.0625 -27.359375 C 18.851562 -25.972656 18.75 -24.519531 18.75 -23 L 18.75 -8.796875 C 18.75 -7.753906 18.875 -6.914062 19.125 -6.28125 C 19.375 -5.65625 19.726562 -5.164062 20.1875 -4.8125 C 20.65625 -4.457031 21.222656 -4.222656 21.890625 -4.109375 C 22.554688 -4.003906 23.300781 -3.953125 24.125 -3.953125 L 24.34375 -3.953125 L 24.34375 0 L 1.484375 0 L 1.484375 -3.953125 L 1.640625 -3.953125 C 2.484375 -3.953125 3.253906 -4.003906 3.953125 -4.109375 C 4.660156 -4.222656 5.273438 -4.460938 5.796875 -4.828125 C 6.316406 -5.191406 6.722656 -5.710938 7.015625 -6.390625 C 7.304688 -7.066406 7.453125 -7.960938 7.453125 -9.078125 L 7.453125 -31.09375 C 7.453125 -32.132812 7.320312 -32.96875 7.0625 -33.59375 C 6.8125 -34.226562 6.445312 -34.71875 5.96875 -35.0625 C 5.5 -35.414062 4.9375 -35.644531 4.28125 -35.75 C 3.632812 -35.863281 2.898438 -35.921875 2.078125 -35.921875 L 1.859375 -35.921875 L 1.859375 -39.890625 L 17.46875 -39.890625 L 18.453125 -34.578125 L 18.8125 -34.578125 C 19.5625 -35.984375 20.351562 -37.097656 21.1875 -37.921875 C 22.03125 -38.742188 22.921875 -39.375 23.859375 -39.8125 C 24.804688 -40.25 25.804688 -40.523438 26.859375 -40.640625 C 27.910156 -40.765625 29.019531 -40.828125 30.1875 -40.828125 C 32.09375 -40.828125 33.804688 -40.546875 35.328125 -39.984375 C 36.859375 -39.429688 38.148438 -38.570312 39.203125 -37.40625 C 40.265625 -36.25 41.070312 -34.765625 41.625 -32.953125 C 42.1875 -31.148438 42.46875 -28.992188 42.46875 -26.484375 L 42.46875 -9.21875 C 42.46875 -8.0625 42.566406 -7.132812 42.765625 -6.4375 C 42.972656 -5.75 43.28125 -5.222656 43.6875 -4.859375 C 44.101562 -4.503906 44.625 -4.265625 45.25 -4.140625 C 45.882812 -4.015625 46.625 -3.953125 47.46875 -3.953125 L 47.6875 -3.953125 L 47.6875 0 Z M 31.171875 0" transform="translate(305.957 254.692)"/></g></g></g></svg>